<?xml version="1.0" encoding="utf-8"?>
<!-- Generator: Adobe Illustrator 21.0.0, SVG Export Plug-In . SVG Version: 6.00 Build 0)  -->
<svg version="1.1" id="图层_1" xmlns="http://www.w3.org/2000/svg" xmlns:xlink="http://www.w3.org/1999/xlink" x="0px" y="0px"
	 viewBox="0 0 260 80" style="enable-background:new 0 0 260 80;" xml:space="preserve">
<style type="text/css">
	.st0{fill:#313D4C;}
	.st1{fill:url(#SVGID_1_);}
	.st2{fill:#FFFFFF;}
</style>
<g>
	<g>
		<path class="st0" d="M234.5,60.5L232,63c-0.1,0.1-0.3,0.2-0.5,0.2h-7.1V53.1h8.1c1.3,0,2.3-1,2.3-2.3s-1-2.3-2.3-2.3h-8.1v-8.9
			h5.1c1.5,0,2.8-0.6,3.9-1.6l3.3-3.3c0.9-0.9,0.9-2.4,0-3.3c-0.9-0.9-2.4-0.9-3.3,0l-3.3,3.3c-0.1,0.1-0.3,0.2-0.5,0.2h-15.9
			c-0.4,0-0.6-0.2-0.6-0.4c-0.1-0.1-0.2-0.4,0-0.7l8.6-13.5h14.5c1.3,0,2.3-1,2.3-2.3c0-1.3-1-2.3-2.3-2.3H208c-1.3,0-2.3,1-2.3,2.3
			c0,1.3,1,2.3,2.3,2.3h8.1l-7,11c-1.1,1.7-1.1,3.8-0.2,5.5c1,1.7,2.8,2.8,4.8,2.8h6.1v8.9h-8.4c-1.3,0-2.3,1-2.3,2.3s1,2.3,2.3,2.3
			h8.4v10.1h-10.2c-1.3,0-2.3,1-2.3,2.3s1,2.3,2.3,2.3h21.9c1.5,0,2.8-0.6,3.8-1.6l2.5-2.5c0.9-0.9,0.9-2.4,0-3.3
			C236.9,59.6,235.4,59.6,234.5,60.5z"/>
		<path class="st0" d="M246,25.7c0-1.3-1-2.3-2.3-2.3s-2.3,1-2.3,2.3v25.7c0,1.3,1,2.3,2.3,2.3s2.3-1,2.3-2.3V25.7z"/>
		<path class="st0" d="M253.7,13.2c-1.3,0-2.3,1-2.3,2.3v46.8c0,0.5-0.4,0.8-0.8,0.8h-2.5c-1.3,0-2.3,1-2.3,2.3s1,2.3,2.3,2.3h2.5
			c3,0,5.5-2.5,5.5-5.5V15.5C256.1,14.2,255,13.2,253.7,13.2z"/>
		<path class="st0" d="M105.2,21.7H94.1v-6.2c0-1.3-1-2.3-2.3-2.3c-1.3,0-2.3,1-2.3,2.3v6.2h-1.6c-1.3,0-2.3,1-2.3,2.3
			c0,1.3,1,2.3,2.3,2.3h1.6v25.1c0,0.5,0.2,1,0.5,1.4l3.7,5.1l-5.2,6c-0.8,1-0.7,2.5,0.3,3.3c0.4,0.4,1,0.6,1.5,0.6
			c0.7,0,1.3-0.3,1.8-0.8l4.4-5.2l3.7,5.1c0.5,0.6,1.2,1,1.9,1c0.5,0,1-0.1,1.4-0.5c1-0.8,1.3-2.2,0.5-3.3l-4.4-5.9l4.1-4.9
			c0.4-0.4,0.6-1,0.6-1.5V26.4h1c1.3,0,2.3-1,2.3-2.3C107.6,22.8,106.5,21.7,105.2,21.7z M99.6,51l-2.9,3.4l-2.6-3.6V26.4h5.5V51z"
			/>
		<path class="st0" d="M130.6,49.2h7.8c1.3,0,2.3-1,2.3-2.3s-1-2.3-2.3-2.3h-10.8v-3.1c5.5-1.1,9.7-6,9.7-11.9v-8.4h1.9
			c1.3,0,2.3-1,2.3-2.3c0-1.3-1-2.3-2.3-2.3h-1.9v-0.9c0-1.3-1-2.3-2.3-2.3s-2.3,1-2.3,2.3v0.9h-14.9v-0.9c0-1.3-1-2.3-2.3-2.3
			s-2.3,1-2.3,2.3v0.9h-2.4c-1.3,0-2.3,1-2.3,2.3c0,1.3,1,2.3,2.3,2.3h2.4v8.4c0,5.9,4.3,10.9,9.9,11.9v3h-10.8
			c-1.3,0-2.3,1-2.3,2.3s1,2.3,2.3,2.3h7.5L109,60.4c-0.9,0.9-0.9,2.4,0.1,3.3c0.5,0.4,1,0.6,1.6,0.6c0.6,0,1.2-0.2,1.7-0.7
			l10.5-11.1v13c0,1.3,1,2.3,2.3,2.3s2.3-1,2.3-2.3V52.9l10.5,10.8c0.9,0.9,2.4,0.9,3.3,0c0.9-0.9,0.9-2.4,0-3.3L130.6,49.2z
			 M118,31.8c0.3,0.1,0.6,0.1,1,0.1c2,0,3.6-1.6,3.6-3.6s-1.6-3.6-3.6-3.6c-0.5,0-0.9,0.1-1.3,0.2v-3.7h14.9v8.4
			c0,4.1-3.3,7.5-7.5,7.5C121.8,37,118.9,34.8,118,31.8z"/>
		<path class="st0" d="M161.1,45.1V29.6l4.8,6.6c0.5,0.6,1.2,1,1.9,1c0.5,0,1-0.1,1.4-0.5c1-0.8,1.3-2.2,0.5-3.3l-6.3-8.6h4.6
			c1.3,0,2.3-1,2.3-2.3c0-1.3-1-2.3-2.3-2.3h-6.9v-4.5c0-1.3-1-2.3-2.3-2.3s-2.3,1-2.3,2.3V20h-6.9c-1.3,0-2.3,1-2.3,2.3
			c0,1.3,1,2.3,2.3,2.3h4.6l-6.3,8.6c-0.8,1-0.5,2.5,0.5,3.3c0.4,0.3,0.9,0.5,1.4,0.5c0.7,0,1.4-0.3,1.9-1l4.8-6.6v15.5
			c0,1.3,1,2.3,2.3,2.3S161.1,46.4,161.1,45.1z"/>
		<path class="st0" d="M185.7,14.1h-0.6c-6.5,0-11.8,5.3-11.8,11.8v9.8c0,6.5,5.3,11.8,11.8,11.8h0.6c6.5,0,11.8-5.3,11.8-11.8v-9.8
			C197.5,19.4,192.2,14.1,185.7,14.1z M192.8,35.6c0,3.9-3.2,7.1-7.1,7.1h-0.6c-3.9,0-7.1-3.2-7.1-7.1v-2.2c0.4,0.2,0.8,0.2,1.3,0.2
			c2,0,3.6-1.6,3.6-3.6s-1.6-3.6-3.6-3.6c-0.5,0-0.9,0.1-1.3,0.2v-0.8c0-3.9,3.2-7.1,7.1-7.1h0.6c3.9,0,7.1,3.2,7.1,7.1V35.6z"/>
		<path class="st0" d="M194.1,52.2h-19c-1.3,0-2.3,1-2.3,2.3s1,2.3,2.3,2.3h15.8l-6,6.3h-20.7v-9.3c0-1.3-1-2.3-2.3-2.3
			c-1.3,0-2.3,1-2.3,2.3v11.7c0,1.3,1,2.3,2.3,2.3h24c0.6,0,1.3-0.3,1.7-0.7l8.9-9.4c0.9-1,1.2-2.4,0.6-3.6
			C196.6,52.9,195.4,52.2,194.1,52.2z"/>
		<circle class="st0" cx="153.1" cy="55.8" r="3.6"/>
	</g>
	<linearGradient id="SVGID_1_" gradientUnits="userSpaceOnUse" x1="11.0182" y1="22.3597" x2="65.3257" y2="76.6671">
		<stop  offset="0" style="stop-color:#00C1FF"/>
		<stop  offset="1" style="stop-color:#0087FF"/>
	</linearGradient>
	<path class="st1" d="M70.7,65.5c-1.8-3.4-4.5-6.5-6.8-12.2c-2.1-5.4-1.8-9.7-1.5-21.8C62.9,17.3,52.4,5,38.2,5S13.5,17.3,13.9,31.5
		c0.4,12.1,0.6,16.4-1.5,21.8C10.2,59,7.5,62,5.7,65.5c-2.7,5.1,2.1,9.8,7.8,7.9c4.1-1.4,6.6-3.1,10.6-2.7c4.7,0.5,7.6,5.5,14.2,5.5
		s9.4-5,14.2-5.5c4-0.4,6.5,1.3,10.6,2.7C68.6,75.3,73.4,70.5,70.7,65.5z"/>
	<g>
		<g>
			<g>
				<ellipse class="st2" cx="26.2" cy="38.7" rx="7.8" ry="9.9"/>
			</g>
			<path class="st0" d="M32,36.8c-0.8,0-1.4-0.8-1.4-1.8c0-0.9,0.6-1.7,1.3-1.7c-0.6-0.7-1.5-1.2-2.4-1.2c-2,0-3.7,2.1-3.7,4.6
				c0,2.5,1.6,4.6,3.7,4.6s3.7-2.1,3.7-4.6c0-0.2,0-0.5,0-0.7C32.9,36.5,32.5,36.8,32,36.8z"/>
		</g>
		<g>
			<g>
				<ellipse class="st2" cx="50.2" cy="38.7" rx="7.8" ry="9.9"/>
			</g>
			<path class="st0" d="M56,36.8c-0.8,0-1.4-0.8-1.4-1.8c0-0.9,0.6-1.7,1.3-1.7c-0.6-0.7-1.5-1.2-2.4-1.2c-2,0-3.7,2.1-3.7,4.6
				c0,2.5,1.6,4.6,3.7,4.6s3.7-2.1,3.7-4.6c0-0.2,0-0.5,0-0.7C56.9,36.5,56.5,36.8,56,36.8z"/>
		</g>
	</g>
</g>
</svg>
